<?xml version="1.0" encoding="UTF-8"?>
<svg id="Layer_2" data-name="Layer 2" xmlns="http://www.w3.org/2000/svg" viewBox="0 0 119.57 28.64">
  <defs>
    <style>
      .cls-1 {
        fill: #000202;
      }
    </style>
  </defs>
  <g id="Layer_1-2" data-name="Layer 1">
    <g>
      <g>
        <path class="cls-1" d="M35.62,4.18v18.74h3.47V4.18h-3.47Z"/>
        <path class="cls-1" d="M49.24,8.38c-1.62,0-2.76.61-3.87,1.7v-1.22h-3.12v14.06h3.37v-7.67c0-3.09,1.87-3.78,2.91-3.78,1.9,0,2.84,1.52,2.84,4.38v7.07h3.37v-8.31c0-5.09-3.67-6.23-5.5-6.23Z"/>
        <path class="cls-1" d="M68.51,8.86v1.78h-.05c-.73-1.09-2.68-2.26-4.66-2.26-4.07,0-7.04,3.35-7.04,7.42s2.87,7.57,6.82,7.57c1.74,0,3.82-.88,4.93-2.2v1.75h3.09v-14.06h-3.09ZM64.31,20.28c-2.38,0-4.18-1.97-4.18-4.33,0-2.5,1.8-4.48,4.16-4.48s4.12,1.93,4.12,4.38-1.64,4.43-4.1,4.43Z"/>
        <path class="cls-1" d="M85.3,8.86v1.73h-.05c-1.01-1.52-2.65-2.21-4.48-2.21-3.95,0-7.16,3.4-7.16,7.37,0,4.46,3.57,7.62,7.19,7.62,1.9,0,3.49-.66,4.61-2.25l.05.05c-.18,2.66-1.98,4.38-4.31,4.38-1.42,0-2.53-.45-3.47-1.57h-3.85c1.12,2.86,3.93,4.66,7.07,4.66,4.13,0,7.67-2.96,7.67-8.05v-11.73h-3.27ZM81.18,20.28c-2.43,0-4.21-2.07-4.21-4.5s1.88-4.31,4.08-4.31c2.33,0,4.15,2.08,4.15,4.28,0,2.41-1.67,4.53-4.02,4.53Z"/>
        <path class="cls-1" d="M104.96,15.7c0-4.1-3.19-7.32-7.27-7.32-4.28,0-7.4,3.4-7.4,7.55s3.2,7.44,7.42,7.44c2.99,0,5.88-2.05,6.79-4.88h-3.55c-.68,1.24-1.84,1.79-3.24,1.79-2.07,0-3.62-1.64-3.87-2.88h10.91c.13-.61.21-1.17.21-1.7ZM93.74,14.69c.53-2.15,2.1-3.22,3.95-3.22,2.1,0,3.49,1.19,3.82,3.22h-7.77Z"/>
        <path class="cls-1" d="M114.07,8.38c-1.62,0-2.76.61-3.87,1.7v-1.22h-3.11v14.06h3.36v-7.67c0-3.09,1.88-3.78,2.91-3.78,1.9,0,2.84,1.52,2.84,4.38v7.07h3.37v-8.31c0-5.09-3.67-6.23-5.5-6.23Z"/>
      </g>
      <path class="cls-1" d="M0,0v28.62h28.62V0H0ZM12.51,23.69h-3.41l6.99-18.76h3.43l-7.01,18.76Z"/>
    </g>
  </g>
</svg>